<mxfile host="app.diagrams.net" modified="2023-04-09T19:42:48.716Z" agent="5.0 (Windows NT 10.0; Win64; x64) AppleWebKit/537.36 (KHTML, like Gecko) Chrome/112.0.0.0 Safari/537.36 Edg/112.0.1722.34" etag="w97SCZT2dHjYhaHxSYro" version="21.0.10" type="github">
  <diagram id="R2lEEEUBdFMjLlhIrx00" name="Page-1">
    <mxGraphModel dx="2935" dy="1736" grid="1" gridSize="10" guides="1" tooltips="1" connect="1" arrows="1" fold="1" page="1" pageScale="1" pageWidth="850" pageHeight="1100" math="0" shadow="0" extFonts="Permanent Marker^https://fonts.googleapis.com/css?family=Permanent+Marker">
      <root>
        <mxCell id="0" />
        <mxCell id="1" parent="0" />
        <mxCell id="YpXeeTf7qJ5zj5Ovl2NS-48" value="" style="edgeStyle=orthogonalEdgeStyle;rounded=0;orthogonalLoop=1;jettySize=auto;html=1;endArrow=none;endFill=0;" parent="1" source="YpXeeTf7qJ5zj5Ovl2NS-2" target="YpXeeTf7qJ5zj5Ovl2NS-47" edge="1">
          <mxGeometry relative="1" as="geometry">
            <Array as="points">
              <mxPoint x="120" y="220" />
            </Array>
          </mxGeometry>
        </mxCell>
        <mxCell id="YpXeeTf7qJ5zj5Ovl2NS-55" value="" style="edgeStyle=orthogonalEdgeStyle;rounded=0;orthogonalLoop=1;jettySize=auto;html=1;endArrow=none;endFill=0;" parent="1" source="YpXeeTf7qJ5zj5Ovl2NS-2" target="YpXeeTf7qJ5zj5Ovl2NS-54" edge="1">
          <mxGeometry relative="1" as="geometry" />
        </mxCell>
        <mxCell id="YpXeeTf7qJ5zj5Ovl2NS-58" style="edgeStyle=orthogonalEdgeStyle;rounded=0;orthogonalLoop=1;jettySize=auto;html=1;exitX=0.75;exitY=1;exitDx=0;exitDy=0;entryX=0;entryY=0.5;entryDx=0;entryDy=0;endArrow=none;endFill=0;" parent="1" source="YpXeeTf7qJ5zj5Ovl2NS-2" target="YpXeeTf7qJ5zj5Ovl2NS-57" edge="1">
          <mxGeometry relative="1" as="geometry" />
        </mxCell>
        <mxCell id="YpXeeTf7qJ5zj5Ovl2NS-68" style="edgeStyle=orthogonalEdgeStyle;rounded=0;orthogonalLoop=1;jettySize=auto;html=1;exitX=0.75;exitY=0;exitDx=0;exitDy=0;entryX=0.5;entryY=1;entryDx=0;entryDy=0;endArrow=none;endFill=0;" parent="1" source="YpXeeTf7qJ5zj5Ovl2NS-2" target="YpXeeTf7qJ5zj5Ovl2NS-67" edge="1">
          <mxGeometry relative="1" as="geometry" />
        </mxCell>
        <mxCell id="wfZaujD2MZ1aF3UCjnc5-3" style="edgeStyle=orthogonalEdgeStyle;rounded=0;orthogonalLoop=1;jettySize=auto;html=1;exitX=1;exitY=0.75;exitDx=0;exitDy=0;endArrow=none;endFill=0;entryX=0;entryY=0.5;entryDx=0;entryDy=0;" parent="1" source="YpXeeTf7qJ5zj5Ovl2NS-2" edge="1" target="wfZaujD2MZ1aF3UCjnc5-2">
          <mxGeometry relative="1" as="geometry">
            <mxPoint x="120" y="265.2105263157896" as="targetPoint" />
          </mxGeometry>
        </mxCell>
        <mxCell id="wfZaujD2MZ1aF3UCjnc5-15" style="edgeStyle=orthogonalEdgeStyle;rounded=0;orthogonalLoop=1;jettySize=auto;html=1;exitX=0.75;exitY=1;exitDx=0;exitDy=0;entryX=0;entryY=0.5;entryDx=0;entryDy=0;" parent="1" source="YpXeeTf7qJ5zj5Ovl2NS-2" target="CcATFbNi5NQpu170G1Sn-8" edge="1">
          <mxGeometry relative="1" as="geometry" />
        </mxCell>
        <mxCell id="wfZaujD2MZ1aF3UCjnc5-16" style="edgeStyle=orthogonalEdgeStyle;rounded=0;orthogonalLoop=1;jettySize=auto;html=1;exitX=0.5;exitY=1;exitDx=0;exitDy=0;entryX=0;entryY=0.5;entryDx=0;entryDy=0;" parent="1" source="YpXeeTf7qJ5zj5Ovl2NS-2" target="CcATFbNi5NQpu170G1Sn-10" edge="1">
          <mxGeometry relative="1" as="geometry">
            <Array as="points">
              <mxPoint x="-80" y="280" />
              <mxPoint x="-80" y="490" />
            </Array>
          </mxGeometry>
        </mxCell>
        <mxCell id="YpXeeTf7qJ5zj5Ovl2NS-2" value="User" style="rounded=0;whiteSpace=wrap;html=1;fontStyle=1;fillColor=#dae8fc;strokeColor=#6c8ebf;" parent="1" vertex="1">
          <mxGeometry x="-170" y="220" width="120" height="60" as="geometry" />
        </mxCell>
        <mxCell id="CcATFbNi5NQpu170G1Sn-26" style="edgeStyle=orthogonalEdgeStyle;rounded=0;orthogonalLoop=1;jettySize=auto;html=1;exitX=1;exitY=1;exitDx=0;exitDy=0;entryX=0;entryY=0.5;entryDx=0;entryDy=0;endArrow=none;endFill=0;" parent="1" source="QStKEDk6KylnoWYYGcLN-6" target="QStKEDk6KylnoWYYGcLN-15" edge="1">
          <mxGeometry relative="1" as="geometry">
            <mxPoint x="-110" y="-60" as="sourcePoint" />
            <mxPoint x="-10" y="-20" as="targetPoint" />
            <Array as="points">
              <mxPoint y="-80" />
              <mxPoint x="40" y="-80" />
              <mxPoint x="40" y="-50" />
            </Array>
          </mxGeometry>
        </mxCell>
        <mxCell id="CcATFbNi5NQpu170G1Sn-56" style="edgeStyle=orthogonalEdgeStyle;rounded=0;orthogonalLoop=1;jettySize=auto;html=1;entryX=0.5;entryY=0;entryDx=0;entryDy=0;endArrow=none;endFill=0;" parent="1" source="YpXeeTf7qJ5zj5Ovl2NS-4" target="CcATFbNi5NQpu170G1Sn-55" edge="1">
          <mxGeometry relative="1" as="geometry" />
        </mxCell>
        <mxCell id="vjulIX2V4j6uV4gn_BUf-6" style="edgeStyle=orthogonalEdgeStyle;rounded=0;orthogonalLoop=1;jettySize=auto;html=1;exitX=0;exitY=0.5;exitDx=0;exitDy=0;entryX=0.5;entryY=0;entryDx=0;entryDy=0;endArrow=none;endFill=0;" edge="1" parent="1" source="YpXeeTf7qJ5zj5Ovl2NS-4" target="vjulIX2V4j6uV4gn_BUf-5">
          <mxGeometry relative="1" as="geometry" />
        </mxCell>
        <mxCell id="YpXeeTf7qJ5zj5Ovl2NS-4" value="&lt;meta charset=&quot;utf-8&quot;&gt;&lt;b id=&quot;docs-internal-guid-718b6a08-7fff-b9a7-0453-49510cfb1dfd&quot; style=&quot;font-weight:normal;&quot;&gt;&lt;span style=&quot;font-size: 12pt; font-family: Arial; color: rgb(0, 0, 0); background-color: transparent; font-weight: 700; font-style: normal; font-variant: normal; text-decoration: none; vertical-align: baseline;&quot;&gt;Textbook&lt;/span&gt;&lt;/b&gt;" style="rounded=0;whiteSpace=wrap;html=1;fillColor=#dae8fc;strokeColor=#6c8ebf;" parent="1" vertex="1">
          <mxGeometry x="-995" y="840" width="120" height="60" as="geometry" />
        </mxCell>
        <mxCell id="YpXeeTf7qJ5zj5Ovl2NS-78" value="" style="edgeStyle=orthogonalEdgeStyle;rounded=0;orthogonalLoop=1;jettySize=auto;html=1;endArrow=none;endFill=0;" parent="1" source="YpXeeTf7qJ5zj5Ovl2NS-5" target="YpXeeTf7qJ5zj5Ovl2NS-77" edge="1">
          <mxGeometry relative="1" as="geometry" />
        </mxCell>
        <mxCell id="CcATFbNi5NQpu170G1Sn-7" style="edgeStyle=orthogonalEdgeStyle;rounded=0;orthogonalLoop=1;jettySize=auto;html=1;exitX=1;exitY=0.5;exitDx=0;exitDy=0;entryX=0.5;entryY=1;entryDx=0;entryDy=0;endArrow=none;endFill=0;" parent="1" source="YpXeeTf7qJ5zj5Ovl2NS-5" edge="1">
          <mxGeometry relative="1" as="geometry">
            <mxPoint x="545" y="255" as="targetPoint" />
          </mxGeometry>
        </mxCell>
        <mxCell id="QStKEDk6KylnoWYYGcLN-10" style="edgeStyle=orthogonalEdgeStyle;rounded=0;orthogonalLoop=1;jettySize=auto;html=1;exitX=1;exitY=1;exitDx=0;exitDy=0;entryX=0;entryY=0;entryDx=0;entryDy=0;endArrow=none;endFill=0;" parent="1" source="YpXeeTf7qJ5zj5Ovl2NS-5" target="QStKEDk6KylnoWYYGcLN-9" edge="1">
          <mxGeometry relative="1" as="geometry">
            <Array as="points">
              <mxPoint x="520" y="391" />
              <mxPoint x="550" y="391" />
              <mxPoint x="550" y="421" />
            </Array>
          </mxGeometry>
        </mxCell>
        <mxCell id="Ibue7dsVGTLs8TL3Xg4G-1" style="edgeStyle=orthogonalEdgeStyle;rounded=0;orthogonalLoop=1;jettySize=auto;html=1;exitX=0.5;exitY=1;exitDx=0;exitDy=0;entryX=0.5;entryY=0;entryDx=0;entryDy=0;endArrow=none;endFill=0;" parent="1" target="YpXeeTf7qJ5zj5Ovl2NS-74" edge="1">
          <mxGeometry relative="1" as="geometry">
            <mxPoint x="430" y="327" as="sourcePoint" />
          </mxGeometry>
        </mxCell>
        <mxCell id="YpXeeTf7qJ5zj5Ovl2NS-5" value="&lt;b id=&quot;docs-internal-guid-7c196727-7fff-cf44-8b81-c02ef0bab3d8&quot; style=&quot;font-weight:normal;&quot;&gt;&lt;span style=&quot;font-size: 12pt; font-family: Arial; color: rgb(0, 0, 0); background-color: transparent; font-weight: 700; font-style: normal; font-variant: normal; text-decoration: none; vertical-align: baseline;&quot;&gt;Community_Post&lt;/span&gt;&lt;/b&gt;" style="rounded=0;whiteSpace=wrap;html=1;fillColor=#dae8fc;strokeColor=#6c8ebf;" parent="1" vertex="1">
          <mxGeometry x="340" y="320" width="180" height="50" as="geometry" />
        </mxCell>
        <mxCell id="YpXeeTf7qJ5zj5Ovl2NS-88" style="edgeStyle=orthogonalEdgeStyle;rounded=0;orthogonalLoop=1;jettySize=auto;html=1;shape=link;exitX=0.5;exitY=0;exitDx=0;exitDy=0;" parent="1" source="YpXeeTf7qJ5zj5Ovl2NS-89" target="YpXeeTf7qJ5zj5Ovl2NS-86" edge="1">
          <mxGeometry relative="1" as="geometry">
            <mxPoint x="-975" y="939.5" as="sourcePoint" />
          </mxGeometry>
        </mxCell>
        <mxCell id="CcATFbNi5NQpu170G1Sn-46" style="edgeStyle=orthogonalEdgeStyle;rounded=0;orthogonalLoop=1;jettySize=auto;html=1;exitX=0;exitY=0.5;exitDx=0;exitDy=0;entryX=1;entryY=0.5;entryDx=0;entryDy=0;endArrow=none;endFill=0;" parent="1" source="YpXeeTf7qJ5zj5Ovl2NS-12" target="CcATFbNi5NQpu170G1Sn-44" edge="1">
          <mxGeometry relative="1" as="geometry" />
        </mxCell>
        <mxCell id="CcATFbNi5NQpu170G1Sn-50" style="edgeStyle=orthogonalEdgeStyle;rounded=0;orthogonalLoop=1;jettySize=auto;html=1;exitX=0;exitY=0;exitDx=0;exitDy=0;endArrow=none;endFill=0;entryX=1;entryY=0.5;entryDx=0;entryDy=0;" parent="1" source="YpXeeTf7qJ5zj5Ovl2NS-12" target="CcATFbNi5NQpu170G1Sn-49" edge="1">
          <mxGeometry relative="1" as="geometry" />
        </mxCell>
        <mxCell id="CcATFbNi5NQpu170G1Sn-59" style="edgeStyle=orthogonalEdgeStyle;rounded=0;orthogonalLoop=1;jettySize=auto;html=1;exitX=0;exitY=1;exitDx=0;exitDy=0;entryX=1;entryY=0.5;entryDx=0;entryDy=0;endArrow=none;endFill=0;" parent="1" source="YpXeeTf7qJ5zj5Ovl2NS-12" target="CcATFbNi5NQpu170G1Sn-57" edge="1">
          <mxGeometry relative="1" as="geometry" />
        </mxCell>
        <mxCell id="QStKEDk6KylnoWYYGcLN-29" style="edgeStyle=orthogonalEdgeStyle;rounded=0;orthogonalLoop=1;jettySize=auto;html=1;exitX=1;exitY=0.5;exitDx=0;exitDy=0;entryX=0;entryY=0.5;entryDx=0;entryDy=0;endArrow=none;endFill=0;" parent="1" source="YpXeeTf7qJ5zj5Ovl2NS-12" target="YpXeeTf7qJ5zj5Ovl2NS-86" edge="1">
          <mxGeometry relative="1" as="geometry" />
        </mxCell>
        <mxCell id="YpXeeTf7qJ5zj5Ovl2NS-12" value="&lt;span style=&quot;border-color: var(--border-color); color: rgb(0, 0, 0); font-family: Arial; font-size: 16px; font-style: normal; font-variant-ligatures: normal; font-variant-caps: normal; letter-spacing: normal; orphans: 2; text-align: center; text-indent: 0px; text-transform: none; widows: 2; word-spacing: 0px; -webkit-text-stroke-width: 0px; text-decoration-thickness: initial; text-decoration-style: initial; text-decoration-color: initial;&quot;&gt;Resource&lt;/span&gt;" style="rounded=0;whiteSpace=wrap;html=1;fillColor=#dae8fc;strokeColor=#6c8ebf;fontStyle=1;labelBackgroundColor=none;" parent="1" vertex="1">
          <mxGeometry x="-790" y="527" width="120" height="60" as="geometry" />
        </mxCell>
        <mxCell id="CcATFbNi5NQpu170G1Sn-54" style="edgeStyle=orthogonalEdgeStyle;rounded=0;orthogonalLoop=1;jettySize=auto;html=1;entryX=0.5;entryY=0;entryDx=0;entryDy=0;endArrow=none;endFill=0;" parent="1" source="YpXeeTf7qJ5zj5Ovl2NS-16" target="CcATFbNi5NQpu170G1Sn-53" edge="1">
          <mxGeometry relative="1" as="geometry" />
        </mxCell>
        <mxCell id="vjulIX2V4j6uV4gn_BUf-8" style="edgeStyle=orthogonalEdgeStyle;rounded=0;orthogonalLoop=1;jettySize=auto;html=1;exitX=1;exitY=0.5;exitDx=0;exitDy=0;entryX=0.5;entryY=0;entryDx=0;entryDy=0;endArrow=none;endFill=0;" edge="1" parent="1" source="YpXeeTf7qJ5zj5Ovl2NS-16" target="vjulIX2V4j6uV4gn_BUf-7">
          <mxGeometry relative="1" as="geometry" />
        </mxCell>
        <mxCell id="vjulIX2V4j6uV4gn_BUf-10" style="edgeStyle=orthogonalEdgeStyle;rounded=0;orthogonalLoop=1;jettySize=auto;html=1;exitX=0;exitY=0.5;exitDx=0;exitDy=0;entryX=0.5;entryY=0;entryDx=0;entryDy=0;endArrow=none;endFill=0;" edge="1" parent="1" source="YpXeeTf7qJ5zj5Ovl2NS-16" target="vjulIX2V4j6uV4gn_BUf-9">
          <mxGeometry relative="1" as="geometry" />
        </mxCell>
        <mxCell id="YpXeeTf7qJ5zj5Ovl2NS-16" value="&lt;font face=&quot;Arial&quot;&gt;&lt;span style=&quot;font-size: 16px;&quot;&gt;&lt;b&gt;Research_Paper&lt;/b&gt;&lt;/span&gt;&lt;/font&gt;" style="rounded=0;whiteSpace=wrap;html=1;fillColor=#dae8fc;strokeColor=#6c8ebf;" parent="1" vertex="1">
          <mxGeometry x="-620" y="840" width="140" height="60" as="geometry" />
        </mxCell>
        <mxCell id="YpXeeTf7qJ5zj5Ovl2NS-24" style="edgeStyle=orthogonalEdgeStyle;rounded=0;orthogonalLoop=1;jettySize=auto;html=1;exitX=0;exitY=0.5;exitDx=0;exitDy=0;endArrow=none;endFill=0;entryX=0.5;entryY=1;entryDx=0;entryDy=0;" parent="1" source="YpXeeTf7qJ5zj5Ovl2NS-74" target="YpXeeTf7qJ5zj5Ovl2NS-2" edge="1">
          <mxGeometry relative="1" as="geometry">
            <mxPoint x="120" y="557" as="sourcePoint" />
            <mxPoint x="-110" y="320" as="targetPoint" />
            <Array as="points">
              <mxPoint x="400" y="663" />
              <mxPoint x="400" y="557" />
              <mxPoint x="-120" y="557" />
              <mxPoint x="-120" y="280" />
            </Array>
          </mxGeometry>
        </mxCell>
        <mxCell id="YpXeeTf7qJ5zj5Ovl2NS-29" value="Vote_number" style="ellipse;whiteSpace=wrap;html=1;fillColor=#fff2cc;strokeColor=#d6b656;" parent="1" vertex="1">
          <mxGeometry x="561" y="865.5" width="90" height="60" as="geometry" />
        </mxCell>
        <mxCell id="YpXeeTf7qJ5zj5Ovl2NS-38" style="edgeStyle=orthogonalEdgeStyle;rounded=0;orthogonalLoop=1;jettySize=auto;html=1;exitX=1;exitY=0.5;exitDx=0;exitDy=0;entryX=0.5;entryY=0;entryDx=0;entryDy=0;endArrow=none;endFill=0;" parent="1" source="YpXeeTf7qJ5zj5Ovl2NS-45" target="YpXeeTf7qJ5zj5Ovl2NS-29" edge="1">
          <mxGeometry relative="1" as="geometry">
            <mxPoint x="551" y="785.5" as="sourcePoint" />
          </mxGeometry>
        </mxCell>
        <mxCell id="YpXeeTf7qJ5zj5Ovl2NS-32" value="" style="endArrow=none;dashed=1;html=1;dashPattern=1 3;strokeWidth=2;rounded=0;fillColor=#fff2cc;strokeColor=#d6b656;" parent="1" edge="1">
          <mxGeometry width="50" height="50" relative="1" as="geometry">
            <mxPoint x="581" y="905.5" as="sourcePoint" />
            <mxPoint x="621" y="905.5" as="targetPoint" />
            <Array as="points">
              <mxPoint x="641" y="905.5" />
            </Array>
          </mxGeometry>
        </mxCell>
        <mxCell id="YpXeeTf7qJ5zj5Ovl2NS-36" value="Vote_type" style="ellipse;whiteSpace=wrap;html=1;fillColor=#fff2cc;strokeColor=#d6b656;" parent="1" vertex="1">
          <mxGeometry x="461" y="865.5" width="60" height="60" as="geometry" />
        </mxCell>
        <mxCell id="YpXeeTf7qJ5zj5Ovl2NS-46" style="edgeStyle=orthogonalEdgeStyle;rounded=0;orthogonalLoop=1;jettySize=auto;html=1;exitX=0.5;exitY=1;exitDx=0;exitDy=0;entryX=0.5;entryY=0;entryDx=0;entryDy=0;endArrow=none;endFill=0;" parent="1" source="YpXeeTf7qJ5zj5Ovl2NS-45" target="YpXeeTf7qJ5zj5Ovl2NS-36" edge="1">
          <mxGeometry relative="1" as="geometry" />
        </mxCell>
        <mxCell id="Ibue7dsVGTLs8TL3Xg4G-2" style="edgeStyle=orthogonalEdgeStyle;rounded=0;orthogonalLoop=1;jettySize=auto;html=1;exitX=0.5;exitY=0;exitDx=0;exitDy=0;entryX=0.5;entryY=1;entryDx=0;entryDy=0;shape=link;" parent="1" source="YpXeeTf7qJ5zj5Ovl2NS-45" target="YpXeeTf7qJ5zj5Ovl2NS-74" edge="1">
          <mxGeometry relative="1" as="geometry" />
        </mxCell>
        <mxCell id="YpXeeTf7qJ5zj5Ovl2NS-45" value="Vote" style="shape=ext;margin=3;double=1;whiteSpace=wrap;html=1;align=center;fillColor=#dae8fc;strokeColor=#6c8ebf;fontStyle=1" parent="1" vertex="1">
          <mxGeometry x="441" y="765.5" width="100" height="40" as="geometry" />
        </mxCell>
        <mxCell id="YpXeeTf7qJ5zj5Ovl2NS-47" value="&lt;u&gt;User_ID&lt;/u&gt;" style="ellipse;whiteSpace=wrap;html=1;rounded=0;fillColor=#fff2cc;strokeColor=#d6b656;" parent="1" vertex="1">
          <mxGeometry x="85" y="128" width="70" height="50" as="geometry" />
        </mxCell>
        <mxCell id="YpXeeTf7qJ5zj5Ovl2NS-54" value="Name" style="ellipse;whiteSpace=wrap;html=1;rounded=0;fillColor=#fff2cc;strokeColor=#d6b656;" parent="1" vertex="1">
          <mxGeometry x="-150" y="100" width="80" height="50" as="geometry" />
        </mxCell>
        <mxCell id="YpXeeTf7qJ5zj5Ovl2NS-57" value="Google_Scholar_Account" style="ellipse;html=1;rounded=0;whiteSpace=wrap;fontStyle=4;fillColor=#fff2cc;strokeColor=#d6b656;" parent="1" vertex="1">
          <mxGeometry x="-10" y="300" width="165" height="55" as="geometry" />
        </mxCell>
        <mxCell id="YpXeeTf7qJ5zj5Ovl2NS-67" value="&lt;span style=&quot;color: rgb(0, 0, 0); font-family: Helvetica; font-size: 12px; font-style: normal; font-variant-ligatures: normal; font-variant-caps: normal; font-weight: 400; letter-spacing: normal; orphans: 2; text-align: center; text-indent: 0px; text-transform: none; widows: 2; word-spacing: 0px; -webkit-text-stroke-width: 0px; text-decoration-thickness: initial; text-decoration-style: initial; text-decoration-color: initial; float: none; display: inline !important;&quot;&gt;Research_Interests&lt;/span&gt;" style="ellipse;shape=doubleEllipse;whiteSpace=wrap;html=1;fillColor=#fff2cc;strokeColor=#d6b656;labelBackgroundColor=none;" parent="1" vertex="1">
          <mxGeometry x="-50" y="68" width="125" height="70" as="geometry" />
        </mxCell>
        <mxCell id="YpXeeTf7qJ5zj5Ovl2NS-74" value="User_&lt;br&gt;CPost_&lt;br&gt;Vote" style="shape=rhombus;double=1;perimeter=rhombusPerimeter;whiteSpace=wrap;html=1;align=center;fillColor=#f8cecc;strokeColor=#b85450;" parent="1" vertex="1">
          <mxGeometry x="435.07" y="622.14" width="111.87" height="81.36" as="geometry" />
        </mxCell>
        <mxCell id="YpXeeTf7qJ5zj5Ovl2NS-77" value="Content" style="ellipse;whiteSpace=wrap;html=1;rounded=0;fillColor=#fff2cc;strokeColor=#d6b656;" parent="1" vertex="1">
          <mxGeometry x="390" y="200" width="80" height="55" as="geometry" />
        </mxCell>
        <mxCell id="Ibue7dsVGTLs8TL3Xg4G-25" style="edgeStyle=orthogonalEdgeStyle;rounded=0;orthogonalLoop=1;jettySize=auto;html=1;exitX=1;exitY=0.5;exitDx=0;exitDy=0;entryX=0.5;entryY=0;entryDx=0;entryDy=0;shape=link;" parent="1" source="YpXeeTf7qJ5zj5Ovl2NS-80" target="YpXeeTf7qJ5zj5Ovl2NS-16" edge="1">
          <mxGeometry relative="1" as="geometry" />
        </mxCell>
        <mxCell id="Ibue7dsVGTLs8TL3Xg4G-26" style="edgeStyle=orthogonalEdgeStyle;rounded=0;orthogonalLoop=1;jettySize=auto;html=1;exitX=0;exitY=0.5;exitDx=0;exitDy=0;endArrow=none;endFill=0;" parent="1" source="YpXeeTf7qJ5zj5Ovl2NS-80" target="YpXeeTf7qJ5zj5Ovl2NS-12" edge="1">
          <mxGeometry relative="1" as="geometry">
            <Array as="points">
              <mxPoint x="-720" y="790" />
            </Array>
          </mxGeometry>
        </mxCell>
        <mxCell id="YpXeeTf7qJ5zj5Ovl2NS-80" value="Is_Paper" style="rhombus;whiteSpace=wrap;html=1;fillColor=#f8cecc;strokeColor=#b85450;" parent="1" vertex="1">
          <mxGeometry x="-680" y="750" width="80" height="80" as="geometry" />
        </mxCell>
        <mxCell id="YpXeeTf7qJ5zj5Ovl2NS-84" style="edgeStyle=orthogonalEdgeStyle;rounded=0;orthogonalLoop=1;jettySize=auto;html=1;entryX=0.5;entryY=0;entryDx=0;entryDy=0;endArrow=none;endFill=0;shape=link;" parent="1" source="YpXeeTf7qJ5zj5Ovl2NS-83" target="YpXeeTf7qJ5zj5Ovl2NS-4" edge="1">
          <mxGeometry relative="1" as="geometry" />
        </mxCell>
        <mxCell id="Ibue7dsVGTLs8TL3Xg4G-24" style="edgeStyle=orthogonalEdgeStyle;rounded=0;orthogonalLoop=1;jettySize=auto;html=1;exitX=1;exitY=0.5;exitDx=0;exitDy=0;endArrow=none;endFill=0;" parent="1" source="YpXeeTf7qJ5zj5Ovl2NS-83" target="YpXeeTf7qJ5zj5Ovl2NS-12" edge="1">
          <mxGeometry relative="1" as="geometry">
            <mxPoint x="-719.8421052631579" y="590" as="targetPoint" />
            <Array as="points">
              <mxPoint x="-750" y="790" />
            </Array>
          </mxGeometry>
        </mxCell>
        <mxCell id="YpXeeTf7qJ5zj5Ovl2NS-83" value="Is_Textbook" style="rhombus;whiteSpace=wrap;html=1;fillColor=#f8cecc;strokeColor=#b85450;" parent="1" vertex="1">
          <mxGeometry x="-860" y="750" width="80" height="80" as="geometry" />
        </mxCell>
        <mxCell id="Ibue7dsVGTLs8TL3Xg4G-14" style="edgeStyle=orthogonalEdgeStyle;rounded=0;orthogonalLoop=1;jettySize=auto;html=1;exitX=1;exitY=0.5;exitDx=0;exitDy=0;entryX=0.5;entryY=1;entryDx=0;entryDy=0;endArrow=none;endFill=0;" parent="1" source="YpXeeTf7qJ5zj5Ovl2NS-86" target="YpXeeTf7qJ5zj5Ovl2NS-2" edge="1">
          <mxGeometry relative="1" as="geometry">
            <Array as="points">
              <mxPoint x="-150" y="557" />
              <mxPoint x="-150" y="280" />
            </Array>
          </mxGeometry>
        </mxCell>
        <mxCell id="YpXeeTf7qJ5zj5Ovl2NS-86" value="User_&lt;br&gt;Resource_&lt;br&gt;Rating" style="shape=rhombus;double=1;perimeter=rhombusPerimeter;whiteSpace=wrap;html=1;align=center;fillColor=#f8cecc;strokeColor=#b85450;" parent="1" vertex="1">
          <mxGeometry x="-498" y="514.5" width="85" height="85" as="geometry" />
        </mxCell>
        <mxCell id="CcATFbNi5NQpu170G1Sn-65" style="edgeStyle=orthogonalEdgeStyle;rounded=0;orthogonalLoop=1;jettySize=auto;html=1;endArrow=none;endFill=0;entryX=0.5;entryY=0;entryDx=0;entryDy=0;exitX=0.5;exitY=1;exitDx=0;exitDy=0;" parent="1" source="YpXeeTf7qJ5zj5Ovl2NS-89" target="CcATFbNi5NQpu170G1Sn-63" edge="1">
          <mxGeometry relative="1" as="geometry">
            <mxPoint x="-465" y="1073.5" as="targetPoint" />
            <mxPoint x="-445" y="698.5" as="sourcePoint" />
          </mxGeometry>
        </mxCell>
        <mxCell id="YpXeeTf7qJ5zj5Ovl2NS-89" value="Rating" style="shape=ext;margin=3;double=1;whiteSpace=wrap;html=1;align=center;rounded=0;fillColor=#dae8fc;strokeColor=#6c8ebf;fontStyle=1" parent="1" vertex="1">
          <mxGeometry x="-505" y="638.5" width="100" height="40" as="geometry" />
        </mxCell>
        <mxCell id="CcATFbNi5NQpu170G1Sn-33" style="edgeStyle=orthogonalEdgeStyle;rounded=0;orthogonalLoop=1;jettySize=auto;html=1;exitX=0;exitY=0.5;exitDx=0;exitDy=0;entryX=1;entryY=0.5;entryDx=0;entryDy=0;endArrow=none;endFill=0;" parent="1" source="YpXeeTf7qJ5zj5Ovl2NS-91" target="QStKEDk6KylnoWYYGcLN-18" edge="1">
          <mxGeometry relative="1" as="geometry">
            <mxPoint x="-850.0000000000041" y="168" as="targetPoint" />
          </mxGeometry>
        </mxCell>
        <mxCell id="CcATFbNi5NQpu170G1Sn-36" style="edgeStyle=orthogonalEdgeStyle;rounded=0;orthogonalLoop=1;jettySize=auto;html=1;exitX=0;exitY=1;exitDx=0;exitDy=0;entryX=1;entryY=0.5;entryDx=0;entryDy=0;endArrow=none;endFill=0;" parent="1" source="YpXeeTf7qJ5zj5Ovl2NS-91" target="CcATFbNi5NQpu170G1Sn-35" edge="1">
          <mxGeometry relative="1" as="geometry" />
        </mxCell>
        <mxCell id="CcATFbNi5NQpu170G1Sn-39" style="edgeStyle=orthogonalEdgeStyle;rounded=0;orthogonalLoop=1;jettySize=auto;html=1;exitX=0;exitY=0;exitDx=0;exitDy=0;entryX=1;entryY=0.5;entryDx=0;entryDy=0;endArrow=none;endFill=0;" parent="1" source="YpXeeTf7qJ5zj5Ovl2NS-91" target="CcATFbNi5NQpu170G1Sn-38" edge="1">
          <mxGeometry relative="1" as="geometry" />
        </mxCell>
        <mxCell id="Ibue7dsVGTLs8TL3Xg4G-7" style="edgeStyle=orthogonalEdgeStyle;rounded=0;orthogonalLoop=1;jettySize=auto;html=1;exitX=1;exitY=0.5;exitDx=0;exitDy=0;entryX=0;entryY=0.5;entryDx=0;entryDy=0;endArrow=none;endFill=0;" parent="1" source="YpXeeTf7qJ5zj5Ovl2NS-91" target="YpXeeTf7qJ5zj5Ovl2NS-100" edge="1">
          <mxGeometry relative="1" as="geometry" />
        </mxCell>
        <mxCell id="YpXeeTf7qJ5zj5Ovl2NS-91" value="&lt;b style=&quot;border-color: var(--border-color); font-family: Arial; font-size: 16px;&quot;&gt;Resource_Post&lt;/b&gt;" style="shape=ext;margin=3;double=1;whiteSpace=wrap;html=1;align=center;rounded=0;fillColor=#dae8fc;strokeColor=#6c8ebf;" parent="1" vertex="1">
          <mxGeometry x="-800" y="143" width="140" height="50" as="geometry" />
        </mxCell>
        <mxCell id="YpXeeTf7qJ5zj5Ovl2NS-93" style="edgeStyle=orthogonalEdgeStyle;rounded=0;orthogonalLoop=1;jettySize=auto;html=1;exitX=0.5;exitY=0;exitDx=0;exitDy=0;shape=link;" parent="1" source="YpXeeTf7qJ5zj5Ovl2NS-92" target="YpXeeTf7qJ5zj5Ovl2NS-91" edge="1">
          <mxGeometry relative="1" as="geometry" />
        </mxCell>
        <mxCell id="YpXeeTf7qJ5zj5Ovl2NS-94" style="edgeStyle=orthogonalEdgeStyle;rounded=0;orthogonalLoop=1;jettySize=auto;html=1;exitX=0.5;exitY=1;exitDx=0;exitDy=0;entryX=0.5;entryY=0;entryDx=0;entryDy=0;endArrow=none;endFill=0;shape=link;" parent="1" source="YpXeeTf7qJ5zj5Ovl2NS-92" target="YpXeeTf7qJ5zj5Ovl2NS-12" edge="1">
          <mxGeometry relative="1" as="geometry" />
        </mxCell>
        <mxCell id="YpXeeTf7qJ5zj5Ovl2NS-92" value="Has" style="shape=rhombus;double=1;perimeter=rhombusPerimeter;whiteSpace=wrap;html=1;align=center;fillColor=#f8cecc;strokeColor=#b85450;" parent="1" vertex="1">
          <mxGeometry x="-770" y="262.5" width="80" height="80" as="geometry" />
        </mxCell>
        <mxCell id="CcATFbNi5NQpu170G1Sn-30" style="edgeStyle=orthogonalEdgeStyle;rounded=0;orthogonalLoop=1;jettySize=auto;html=1;exitX=0.75;exitY=1;exitDx=0;exitDy=0;endArrow=none;endFill=0;" parent="1" source="YpXeeTf7qJ5zj5Ovl2NS-99" target="CcATFbNi5NQpu170G1Sn-28" edge="1">
          <mxGeometry relative="1" as="geometry" />
        </mxCell>
        <mxCell id="CcATFbNi5NQpu170G1Sn-31" style="edgeStyle=orthogonalEdgeStyle;rounded=0;orthogonalLoop=1;jettySize=auto;html=1;exitX=0.25;exitY=1;exitDx=0;exitDy=0;endArrow=none;endFill=0;entryX=0.5;entryY=0;entryDx=0;entryDy=0;" parent="1" source="YpXeeTf7qJ5zj5Ovl2NS-99" target="CcATFbNi5NQpu170G1Sn-61" edge="1">
          <mxGeometry relative="1" as="geometry">
            <mxPoint x="-530" y="378" as="targetPoint" />
          </mxGeometry>
        </mxCell>
        <mxCell id="YpXeeTf7qJ5zj5Ovl2NS-99" value="Comment" style="shape=ext;margin=3;double=1;whiteSpace=wrap;html=1;align=center;rounded=0;fillColor=#dae8fc;strokeColor=#6c8ebf;fontStyle=1" parent="1" vertex="1">
          <mxGeometry x="-510" y="258" width="100" height="40" as="geometry" />
        </mxCell>
        <mxCell id="YpXeeTf7qJ5zj5Ovl2NS-104" style="edgeStyle=orthogonalEdgeStyle;rounded=0;orthogonalLoop=1;jettySize=auto;html=1;entryX=0;entryY=0.5;entryDx=0;entryDy=0;endArrow=none;endFill=0;" parent="1" source="YpXeeTf7qJ5zj5Ovl2NS-100" target="YpXeeTf7qJ5zj5Ovl2NS-2" edge="1">
          <mxGeometry relative="1" as="geometry">
            <mxPoint x="-260" y="168" as="targetPoint" />
          </mxGeometry>
        </mxCell>
        <mxCell id="Ibue7dsVGTLs8TL3Xg4G-13" style="edgeStyle=orthogonalEdgeStyle;rounded=0;orthogonalLoop=1;jettySize=auto;html=1;exitX=0.5;exitY=1;exitDx=0;exitDy=0;shape=link;" parent="1" source="YpXeeTf7qJ5zj5Ovl2NS-100" target="YpXeeTf7qJ5zj5Ovl2NS-99" edge="1">
          <mxGeometry relative="1" as="geometry" />
        </mxCell>
        <mxCell id="YpXeeTf7qJ5zj5Ovl2NS-100" value="User_&lt;br&gt;RPost_&lt;br&gt;Comment" style="shape=rhombus;double=1;perimeter=rhombusPerimeter;whiteSpace=wrap;html=1;align=center;fillColor=#f8cecc;strokeColor=#b85450;" parent="1" vertex="1">
          <mxGeometry x="-510" y="118" width="100" height="100" as="geometry" />
        </mxCell>
        <mxCell id="YpXeeTf7qJ5zj5Ovl2NS-106" style="edgeStyle=orthogonalEdgeStyle;rounded=0;orthogonalLoop=1;jettySize=auto;html=1;entryX=0;entryY=0.5;entryDx=0;entryDy=0;shape=link;" parent="1" source="YpXeeTf7qJ5zj5Ovl2NS-105" target="QStKEDk6KylnoWYYGcLN-6" edge="1">
          <mxGeometry relative="1" as="geometry">
            <mxPoint x="-230" y="-90" as="targetPoint" />
          </mxGeometry>
        </mxCell>
        <mxCell id="YpXeeTf7qJ5zj5Ovl2NS-107" style="edgeStyle=orthogonalEdgeStyle;rounded=0;orthogonalLoop=1;jettySize=auto;html=1;entryX=0;entryY=0;entryDx=0;entryDy=0;endArrow=none;endFill=0;" parent="1" source="YpXeeTf7qJ5zj5Ovl2NS-105" target="YpXeeTf7qJ5zj5Ovl2NS-2" edge="1">
          <mxGeometry relative="1" as="geometry" />
        </mxCell>
        <mxCell id="YpXeeTf7qJ5zj5Ovl2NS-105" value="Issues" style="shape=rhombus;double=1;perimeter=rhombusPerimeter;whiteSpace=wrap;html=1;align=center;fillColor=#f8cecc;strokeColor=#b85450;" parent="1" vertex="1">
          <mxGeometry x="-210" width="80" height="80" as="geometry" />
        </mxCell>
        <mxCell id="CcATFbNi5NQpu170G1Sn-4" style="edgeStyle=orthogonalEdgeStyle;rounded=0;orthogonalLoop=1;jettySize=auto;html=1;exitX=0.5;exitY=1;exitDx=0;exitDy=0;entryX=0;entryY=0.5;entryDx=0;entryDy=0;endArrow=none;endFill=0;" parent="1" source="CcATFbNi5NQpu170G1Sn-3" target="YpXeeTf7qJ5zj5Ovl2NS-5" edge="1">
          <mxGeometry relative="1" as="geometry" />
        </mxCell>
        <mxCell id="CcATFbNi5NQpu170G1Sn-3" value="Attachment" style="ellipse;shape=doubleEllipse;whiteSpace=wrap;html=1;fillColor=#fff2cc;strokeColor=#d6b656;" parent="1" vertex="1">
          <mxGeometry x="260" y="198" width="100" height="60" as="geometry" />
        </mxCell>
        <mxCell id="CcATFbNi5NQpu170G1Sn-6" value="Post_ID" style="ellipse;whiteSpace=wrap;html=1;fontStyle=4;fillColor=#fff2cc;strokeColor=#d6b656;" parent="1" vertex="1">
          <mxGeometry x="500" y="200" width="90" height="62.5" as="geometry" />
        </mxCell>
        <mxCell id="CcATFbNi5NQpu170G1Sn-8" value="Email" style="ellipse;whiteSpace=wrap;html=1;fontStyle=4;fillColor=#fff2cc;strokeColor=#d6b656;" parent="1" vertex="1">
          <mxGeometry x="75" y="385.5" width="80" height="50" as="geometry" />
        </mxCell>
        <mxCell id="CcATFbNi5NQpu170G1Sn-10" value="Password" style="ellipse;whiteSpace=wrap;html=1;fillColor=#fff2cc;strokeColor=#d6b656;" parent="1" vertex="1">
          <mxGeometry x="70" y="464.5" width="80" height="50" as="geometry" />
        </mxCell>
        <mxCell id="vjulIX2V4j6uV4gn_BUf-11" style="edgeStyle=orthogonalEdgeStyle;rounded=0;orthogonalLoop=1;jettySize=auto;html=1;exitX=0;exitY=0.5;exitDx=0;exitDy=0;entryX=1;entryY=0.5;entryDx=0;entryDy=0;endArrow=none;endFill=0;" edge="1" parent="1" source="CcATFbNi5NQpu170G1Sn-21" target="QStKEDk6KylnoWYYGcLN-6">
          <mxGeometry relative="1" as="geometry" />
        </mxCell>
        <mxCell id="CcATFbNi5NQpu170G1Sn-21" value="Content" style="ellipse;whiteSpace=wrap;html=1;fillColor=#fff2cc;strokeColor=#d6b656;" parent="1" vertex="1">
          <mxGeometry x="85" y="-160" width="100" height="50" as="geometry" />
        </mxCell>
        <mxCell id="CcATFbNi5NQpu170G1Sn-28" value="Content" style="ellipse;whiteSpace=wrap;html=1;fillColor=#fff2cc;strokeColor=#d6b656;" parent="1" vertex="1">
          <mxGeometry x="-400" y="380.5" width="100" height="50" as="geometry" />
        </mxCell>
        <mxCell id="CcATFbNi5NQpu170G1Sn-35" value="Date" style="ellipse;whiteSpace=wrap;html=1;fillColor=#fff2cc;strokeColor=#d6b656;" parent="1" vertex="1">
          <mxGeometry x="-960" y="240" width="85" height="40" as="geometry" />
        </mxCell>
        <mxCell id="CcATFbNi5NQpu170G1Sn-38" value="Keywords" style="ellipse;shape=doubleEllipse;whiteSpace=wrap;html=1;fillColor=#fff2cc;strokeColor=#d6b656;" parent="1" vertex="1">
          <mxGeometry x="-957.5" y="68" width="85" height="50" as="geometry" />
        </mxCell>
        <mxCell id="CcATFbNi5NQpu170G1Sn-44" value="Hyperlink" style="ellipse;whiteSpace=wrap;html=1;fillColor=#fff2cc;strokeColor=#d6b656;fontStyle=4" parent="1" vertex="1">
          <mxGeometry x="-940" y="537" width="110" height="40" as="geometry" />
        </mxCell>
        <mxCell id="CcATFbNi5NQpu170G1Sn-49" value="Topic" style="ellipse;shape=doubleEllipse;whiteSpace=wrap;html=1;fillColor=#fff2cc;strokeColor=#d6b656;" parent="1" vertex="1">
          <mxGeometry x="-940" y="450" width="100" height="60" as="geometry" />
        </mxCell>
        <mxCell id="CcATFbNi5NQpu170G1Sn-53" value="Paper_ID" style="ellipse;whiteSpace=wrap;html=1;fontStyle=4;fillColor=#fff2cc;strokeColor=#d6b656;" parent="1" vertex="1">
          <mxGeometry x="-600" y="935" width="100" height="50" as="geometry" />
        </mxCell>
        <mxCell id="CcATFbNi5NQpu170G1Sn-55" value="Book_ID" style="ellipse;whiteSpace=wrap;html=1;fontStyle=4;fillColor=#fff2cc;strokeColor=#d6b656;" parent="1" vertex="1">
          <mxGeometry x="-985" y="935" width="100" height="50" as="geometry" />
        </mxCell>
        <mxCell id="CcATFbNi5NQpu170G1Sn-57" value="Resource_ID" style="ellipse;whiteSpace=wrap;html=1;fontStyle=4;fillColor=#fff2cc;strokeColor=#d6b656;" parent="1" vertex="1">
          <mxGeometry x="-940" y="605" width="100" height="50" as="geometry" />
        </mxCell>
        <mxCell id="CcATFbNi5NQpu170G1Sn-61" value="Comment_number" style="ellipse;whiteSpace=wrap;html=1;fillColor=#fff2cc;strokeColor=#d6b656;" parent="1" vertex="1">
          <mxGeometry x="-630" y="375.5" width="120" height="60" as="geometry" />
        </mxCell>
        <mxCell id="CcATFbNi5NQpu170G1Sn-62" value="" style="endArrow=none;dashed=1;html=1;dashPattern=1 3;strokeWidth=2;rounded=0;fillColor=#fff2cc;strokeColor=#d6b656;" parent="1" edge="1">
          <mxGeometry width="50" height="50" relative="1" as="geometry">
            <mxPoint x="-560" y="418" as="sourcePoint" />
            <mxPoint x="-520" y="418" as="targetPoint" />
            <Array as="points">
              <mxPoint x="-610" y="418" />
            </Array>
          </mxGeometry>
        </mxCell>
        <mxCell id="CcATFbNi5NQpu170G1Sn-63" value="Rating_number" style="ellipse;whiteSpace=wrap;html=1;fillColor=#fff2cc;strokeColor=#d6b656;" parent="1" vertex="1">
          <mxGeometry x="-510" y="738.5" width="110" height="60" as="geometry" />
        </mxCell>
        <mxCell id="CcATFbNi5NQpu170G1Sn-64" value="" style="endArrow=none;dashed=1;html=1;dashPattern=1 3;strokeWidth=2;rounded=0;fillColor=#fff2cc;strokeColor=#d6b656;" parent="1" edge="1">
          <mxGeometry width="50" height="50" relative="1" as="geometry">
            <mxPoint x="-460" y="778.5" as="sourcePoint" />
            <mxPoint x="-420" y="778.5" as="targetPoint" />
            <Array as="points">
              <mxPoint x="-490" y="779" />
            </Array>
          </mxGeometry>
        </mxCell>
        <mxCell id="QStKEDk6KylnoWYYGcLN-6" value="&lt;b style=&quot;border-color: var(--border-color); font-family: Arial; font-size: 16px;&quot;&gt;Ticket&lt;/b&gt;" style="shape=ext;margin=3;double=1;whiteSpace=wrap;html=1;align=center;rounded=0;fillColor=#dae8fc;strokeColor=#6c8ebf;" parent="1" vertex="1">
          <mxGeometry x="-140" y="-120" width="140" height="50" as="geometry" />
        </mxCell>
        <mxCell id="QStKEDk6KylnoWYYGcLN-9" value="Date" style="ellipse;whiteSpace=wrap;html=1;rounded=0;fillColor=#fff2cc;strokeColor=#d6b656;" parent="1" vertex="1">
          <mxGeometry x="510" y="412.5" width="80" height="55" as="geometry" />
        </mxCell>
        <mxCell id="QStKEDk6KylnoWYYGcLN-13" style="edgeStyle=orthogonalEdgeStyle;rounded=0;orthogonalLoop=1;jettySize=auto;html=1;exitX=0.5;exitY=0;exitDx=0;exitDy=0;entryX=0.5;entryY=1;entryDx=0;entryDy=0;endArrow=none;endFill=0;" parent="1" source="QStKEDk6KylnoWYYGcLN-12" target="YpXeeTf7qJ5zj5Ovl2NS-99" edge="1">
          <mxGeometry relative="1" as="geometry" />
        </mxCell>
        <mxCell id="QStKEDk6KylnoWYYGcLN-12" value="Date" style="ellipse;whiteSpace=wrap;html=1;rounded=0;fillColor=#fff2cc;strokeColor=#d6b656;" parent="1" vertex="1">
          <mxGeometry x="-500" y="375.5" width="80" height="55" as="geometry" />
        </mxCell>
        <mxCell id="QStKEDk6KylnoWYYGcLN-15" value="Ticket_number" style="ellipse;whiteSpace=wrap;html=1;fillColor=#fff2cc;strokeColor=#d6b656;" parent="1" vertex="1">
          <mxGeometry x="65" y="-80" width="120" height="60" as="geometry" />
        </mxCell>
        <mxCell id="QStKEDk6KylnoWYYGcLN-16" value="" style="endArrow=none;dashed=1;html=1;dashPattern=1 3;strokeWidth=2;rounded=0;fillColor=#fff2cc;strokeColor=#d6b656;" parent="1" edge="1">
          <mxGeometry width="50" height="50" relative="1" as="geometry">
            <mxPoint x="97.5" y="-39.99999999999994" as="sourcePoint" />
            <mxPoint x="137.5" y="-39.99999999999994" as="targetPoint" />
            <Array as="points">
              <mxPoint x="157.5" y="-39.99999999999994" />
            </Array>
          </mxGeometry>
        </mxCell>
        <mxCell id="QStKEDk6KylnoWYYGcLN-17" value="" style="endArrow=none;dashed=1;html=1;dashPattern=1 3;strokeWidth=2;rounded=0;fillColor=#fff2cc;strokeColor=#d6b656;" parent="1" edge="1">
          <mxGeometry width="50" height="50" relative="1" as="geometry">
            <mxPoint x="-945" y="169.00000000000006" as="sourcePoint" />
            <mxPoint x="-905" y="169.00000000000006" as="targetPoint" />
            <Array as="points">
              <mxPoint x="-885" y="169.00000000000006" />
            </Array>
          </mxGeometry>
        </mxCell>
        <mxCell id="QStKEDk6KylnoWYYGcLN-18" value="Post_number" style="ellipse;whiteSpace=wrap;html=1;fillColor=#fff2cc;strokeColor=#d6b656;" parent="1" vertex="1">
          <mxGeometry x="-960" y="137" width="85" height="62" as="geometry" />
        </mxCell>
        <mxCell id="QStKEDk6KylnoWYYGcLN-22" value="" style="endArrow=none;dashed=1;html=1;dashPattern=1 3;strokeWidth=2;rounded=0;fillColor=#fff2cc;strokeColor=#d6b656;" parent="1" edge="1">
          <mxGeometry width="50" height="50" relative="1" as="geometry">
            <mxPoint x="-945" y="179.00000000000006" as="sourcePoint" />
            <mxPoint x="-905" y="179.00000000000006" as="targetPoint" />
            <Array as="points">
              <mxPoint x="-885" y="179.00000000000006" />
            </Array>
          </mxGeometry>
        </mxCell>
        <mxCell id="Ibue7dsVGTLs8TL3Xg4G-4" value="1" style="text;html=1;align=center;verticalAlign=middle;resizable=0;points=[];autosize=1;strokeColor=none;fillColor=none;" parent="1" vertex="1">
          <mxGeometry x="400" y="632" width="30" height="30" as="geometry" />
        </mxCell>
        <mxCell id="Ibue7dsVGTLs8TL3Xg4G-5" value="1" style="text;html=1;align=center;verticalAlign=middle;resizable=0;points=[];autosize=1;strokeColor=none;fillColor=none;" parent="1" vertex="1">
          <mxGeometry x="491" y="587" width="30" height="30" as="geometry" />
        </mxCell>
        <mxCell id="Ibue7dsVGTLs8TL3Xg4G-6" value="1" style="text;html=1;align=center;verticalAlign=middle;resizable=0;points=[];autosize=1;strokeColor=none;fillColor=none;" parent="1" vertex="1">
          <mxGeometry x="491" y="705.5" width="30" height="30" as="geometry" />
        </mxCell>
        <mxCell id="Ibue7dsVGTLs8TL3Xg4G-8" value="1" style="text;html=1;align=center;verticalAlign=middle;resizable=0;points=[];autosize=1;strokeColor=none;fillColor=none;" parent="1" vertex="1">
          <mxGeometry x="-540" y="137" width="30" height="30" as="geometry" />
        </mxCell>
        <mxCell id="Ibue7dsVGTLs8TL3Xg4G-9" value="1" style="text;html=1;align=center;verticalAlign=middle;resizable=0;points=[];autosize=1;strokeColor=none;fillColor=none;" parent="1" vertex="1">
          <mxGeometry x="-410" y="138" width="30" height="30" as="geometry" />
        </mxCell>
        <mxCell id="Ibue7dsVGTLs8TL3Xg4G-10" value="N" style="text;html=1;align=center;verticalAlign=middle;resizable=0;points=[];autosize=1;strokeColor=none;fillColor=none;" parent="1" vertex="1">
          <mxGeometry x="-490" y="212.5" width="30" height="30" as="geometry" />
        </mxCell>
        <mxCell id="Ibue7dsVGTLs8TL3Xg4G-15" value="1" style="text;html=1;align=center;verticalAlign=middle;resizable=0;points=[];autosize=1;strokeColor=none;fillColor=none;" parent="1" vertex="1">
          <mxGeometry x="-528" y="527" width="30" height="30" as="geometry" />
        </mxCell>
        <mxCell id="Ibue7dsVGTLs8TL3Xg4G-17" value="1" style="text;html=1;align=center;verticalAlign=middle;resizable=0;points=[];autosize=1;strokeColor=none;fillColor=none;" parent="1" vertex="1">
          <mxGeometry x="-416" y="527" width="30" height="30" as="geometry" />
        </mxCell>
        <mxCell id="Ibue7dsVGTLs8TL3Xg4G-19" value="1" style="text;html=1;align=center;verticalAlign=middle;resizable=0;points=[];autosize=1;strokeColor=none;fillColor=none;" parent="1" vertex="1">
          <mxGeometry x="-456" y="597" width="30" height="30" as="geometry" />
        </mxCell>
        <mxCell id="Ibue7dsVGTLs8TL3Xg4G-20" value="N" style="text;html=1;align=center;verticalAlign=middle;resizable=0;points=[];autosize=1;strokeColor=none;fillColor=none;" parent="1" vertex="1">
          <mxGeometry x="-260" y="-10" width="30" height="30" as="geometry" />
        </mxCell>
        <mxCell id="Ibue7dsVGTLs8TL3Xg4G-21" value="1" style="text;html=1;align=center;verticalAlign=middle;resizable=0;points=[];autosize=1;strokeColor=none;fillColor=none;" parent="1" vertex="1">
          <mxGeometry x="-220" y="60" width="30" height="30" as="geometry" />
        </mxCell>
        <mxCell id="Ibue7dsVGTLs8TL3Xg4G-22" value="1" style="text;html=1;align=center;verticalAlign=middle;resizable=0;points=[];autosize=1;strokeColor=none;fillColor=none;" parent="1" vertex="1">
          <mxGeometry x="-730" y="340" width="30" height="30" as="geometry" />
        </mxCell>
        <mxCell id="Ibue7dsVGTLs8TL3Xg4G-23" value="1" style="text;html=1;align=center;verticalAlign=middle;resizable=0;points=[];autosize=1;strokeColor=none;fillColor=none;" parent="1" vertex="1">
          <mxGeometry x="-730" y="235" width="30" height="30" as="geometry" />
        </mxCell>
        <mxCell id="Ibue7dsVGTLs8TL3Xg4G-27" value="1" style="text;html=1;align=center;verticalAlign=middle;resizable=0;points=[];autosize=1;strokeColor=none;fillColor=none;" parent="1" vertex="1">
          <mxGeometry x="-890" y="760" width="30" height="30" as="geometry" />
        </mxCell>
        <mxCell id="Ibue7dsVGTLs8TL3Xg4G-28" value="1" style="text;html=1;align=center;verticalAlign=middle;resizable=0;points=[];autosize=1;strokeColor=none;fillColor=none;" parent="1" vertex="1">
          <mxGeometry x="-780" y="760" width="30" height="30" as="geometry" />
        </mxCell>
        <mxCell id="Ibue7dsVGTLs8TL3Xg4G-29" value="1" style="text;html=1;align=center;verticalAlign=middle;resizable=0;points=[];autosize=1;strokeColor=none;fillColor=none;" parent="1" vertex="1">
          <mxGeometry x="-710" y="760" width="30" height="30" as="geometry" />
        </mxCell>
        <mxCell id="Ibue7dsVGTLs8TL3Xg4G-30" value="1" style="text;html=1;align=center;verticalAlign=middle;resizable=0;points=[];autosize=1;strokeColor=none;fillColor=none;" parent="1" vertex="1">
          <mxGeometry x="-600" y="760" width="30" height="30" as="geometry" />
        </mxCell>
        <mxCell id="wfZaujD2MZ1aF3UCjnc5-2" value="Role" style="ellipse;whiteSpace=wrap;html=1;rounded=0;fillColor=#fff2cc;strokeColor=#d6b656;" parent="1" vertex="1">
          <mxGeometry x="140" y="240" width="80" height="50" as="geometry" />
        </mxCell>
        <mxCell id="wfZaujD2MZ1aF3UCjnc5-14" style="edgeStyle=orthogonalEdgeStyle;rounded=0;orthogonalLoop=1;jettySize=auto;html=1;exitX=0;exitY=0.5;exitDx=0;exitDy=0;entryX=1;entryY=0.5;entryDx=0;entryDy=0;endArrow=none;endFill=0;shape=link;" parent="1" source="wfZaujD2MZ1aF3UCjnc5-11" target="YpXeeTf7qJ5zj5Ovl2NS-99" edge="1">
          <mxGeometry relative="1" as="geometry">
            <Array as="points">
              <mxPoint x="-260" y="647" />
              <mxPoint x="-260" y="278" />
            </Array>
          </mxGeometry>
        </mxCell>
        <mxCell id="wfZaujD2MZ1aF3UCjnc5-17" style="edgeStyle=orthogonalEdgeStyle;rounded=0;orthogonalLoop=1;jettySize=auto;html=1;exitX=1;exitY=0.5;exitDx=0;exitDy=0;entryX=0;entryY=1;entryDx=0;entryDy=0;endArrow=none;endFill=0;" parent="1" source="wfZaujD2MZ1aF3UCjnc5-11" target="YpXeeTf7qJ5zj5Ovl2NS-5" edge="1">
          <mxGeometry relative="1" as="geometry" />
        </mxCell>
        <mxCell id="wfZaujD2MZ1aF3UCjnc5-21" style="edgeStyle=orthogonalEdgeStyle;rounded=0;orthogonalLoop=1;jettySize=auto;html=1;exitX=0.5;exitY=0;exitDx=0;exitDy=0;entryX=0.5;entryY=1;entryDx=0;entryDy=0;endArrow=none;endFill=0;" parent="1" source="wfZaujD2MZ1aF3UCjnc5-11" target="YpXeeTf7qJ5zj5Ovl2NS-2" edge="1">
          <mxGeometry relative="1" as="geometry">
            <Array as="points">
              <mxPoint x="-134" y="280" />
            </Array>
          </mxGeometry>
        </mxCell>
        <mxCell id="wfZaujD2MZ1aF3UCjnc5-11" value="User_&lt;br&gt;CPost_&lt;br&gt;Comment" style="shape=rhombus;double=1;perimeter=rhombusPerimeter;whiteSpace=wrap;html=1;align=center;fillColor=#f8cecc;strokeColor=#b85450;" parent="1" vertex="1">
          <mxGeometry x="-190" y="606.32" width="111.87" height="81.36" as="geometry" />
        </mxCell>
        <mxCell id="wfZaujD2MZ1aF3UCjnc5-22" value="1" style="text;html=1;align=center;verticalAlign=middle;resizable=0;points=[];autosize=1;strokeColor=none;fillColor=none;" parent="1" vertex="1">
          <mxGeometry x="-59.06" y="617" width="30" height="30" as="geometry" />
        </mxCell>
        <mxCell id="wfZaujD2MZ1aF3UCjnc5-23" value="1" style="text;html=1;align=center;verticalAlign=middle;resizable=0;points=[];autosize=1;strokeColor=none;fillColor=none;" parent="1" vertex="1">
          <mxGeometry x="-113" y="580" width="30" height="30" as="geometry" />
        </mxCell>
        <mxCell id="wfZaujD2MZ1aF3UCjnc5-24" value="N" style="text;html=1;align=center;verticalAlign=middle;resizable=0;points=[];autosize=1;strokeColor=none;fillColor=none;" parent="1" vertex="1">
          <mxGeometry x="-170" y="605" width="30" height="30" as="geometry" />
        </mxCell>
        <mxCell id="vjulIX2V4j6uV4gn_BUf-5" value="Publisher" style="ellipse;whiteSpace=wrap;html=1;fontStyle=0;fillColor=#fff2cc;strokeColor=#d6b656;" vertex="1" parent="1">
          <mxGeometry x="-1110" y="935" width="100" height="50" as="geometry" />
        </mxCell>
        <mxCell id="vjulIX2V4j6uV4gn_BUf-7" value="Citations" style="ellipse;whiteSpace=wrap;html=1;fontStyle=0;fillColor=#fff2cc;strokeColor=#d6b656;" vertex="1" parent="1">
          <mxGeometry x="-451" y="935" width="100" height="50" as="geometry" />
        </mxCell>
        <mxCell id="vjulIX2V4j6uV4gn_BUf-9" value="DOI" style="ellipse;whiteSpace=wrap;html=1;fontStyle=0;fillColor=#fff2cc;strokeColor=#d6b656;" vertex="1" parent="1">
          <mxGeometry x="-745" y="935" width="100" height="50" as="geometry" />
        </mxCell>
      </root>
    </mxGraphModel>
  </diagram>
</mxfile>
